<svg xmlns="http://www.w3.org/2000/svg" width="28.375" height="19.154" viewBox="0 0 28.375 19.154">
  <path id="Icon_zocial-email" data-name="Icon zocial-email" d="M.072,21.525V5.764q0-.027.082-.52L9.43,13.18.181,22.073a2.319,2.319,0,0,1-.109-.547ZM1.3,4.15a1.179,1.179,0,0,1,.465-.082H26.75a1.549,1.549,0,0,1,.493.082l-9.3,7.962-1.231.985-2.435,2-2.435-2-1.231-.985Zm.027,18.99,9.331-8.948,3.612,2.928,3.612-2.928,9.331,8.948a1.314,1.314,0,0,1-.465.082H1.768a1.239,1.239,0,0,1-.438-.082Zm17.786-9.96,9.249-7.935a1.633,1.633,0,0,1,.082.52V21.525a2.1,2.1,0,0,1-.082.547Z" transform="translate(-0.072 -4.068)" fill="#fff"/>
</svg>
