<svg xmlns="http://www.w3.org/2000/svg" width="17.335" height="17.335" viewBox="0 0 17.335 17.335">
  <g id="Icon_ionic-logo-instagram" data-name="Icon ionic-logo-instagram" transform="translate(-4.5 -4.5)">
    <path id="Path_1" data-name="Path 1" d="M16.779,5.945A3.622,3.622,0,0,1,20.39,9.556v7.223a3.622,3.622,0,0,1-3.611,3.611H9.556a3.622,3.622,0,0,1-3.611-3.611V9.556A3.622,3.622,0,0,1,9.556,5.945h7.223m0-1.445H9.556A5.071,5.071,0,0,0,4.5,9.556v7.223a5.071,5.071,0,0,0,5.056,5.056h7.223a5.071,5.071,0,0,0,5.056-5.056V9.556A5.071,5.071,0,0,0,16.779,4.5Z" fill="#fff"/>
    <path id="Path_2" data-name="Path 2" d="M24.708,11.167a1.083,1.083,0,1,1,1.083-1.083A1.081,1.081,0,0,1,24.708,11.167Z" transform="translate(-6.846 -1.611)" fill="#fff"/>
    <path id="Path_3" data-name="Path 3" d="M15.584,12.695a2.889,2.889,0,1,1-2.889,2.889,2.892,2.892,0,0,1,2.889-2.889m0-1.445a4.334,4.334,0,1,0,4.334,4.334,4.335,4.335,0,0,0-4.334-4.334Z" transform="translate(-2.416 -2.416)" fill="#fff"/>
  </g>
</svg>
