<svg xmlns="http://www.w3.org/2000/svg" width="16.813" height="16.813" viewBox="0 0 16.813 16.813">
  <path id="Icon_awesome-linkedin" data-name="Icon awesome-linkedin" d="M15.612,2.25H1.2A1.206,1.206,0,0,0,0,3.462V17.851a1.206,1.206,0,0,0,1.2,1.212H15.612a1.209,1.209,0,0,0,1.2-1.212V3.462A1.209,1.209,0,0,0,15.612,2.25ZM5.081,16.661H2.59V8.638h2.5v8.024ZM3.836,7.542A1.445,1.445,0,1,1,5.28,6.1,1.446,1.446,0,0,1,3.836,7.542Zm10.587,9.12H11.931v-3.9c0-.931-.019-2.128-1.295-2.128-1.3,0-1.5,1.013-1.5,2.06v3.971H6.646V8.638H9.037v1.1h.034a2.625,2.625,0,0,1,2.361-1.295c2.522,0,2.991,1.663,2.991,3.824Z" transform="translate(0 -2.25)" fill="#fff"/>
</svg>
