<svg xmlns="http://www.w3.org/2000/svg" width="21.174" height="21.174" viewBox="0 0 21.174 21.174">
  <path id="Icon_material-local-phone" data-name="Icon material-local-phone" d="M8.758,13.664a17.82,17.82,0,0,0,7.752,7.752L19.1,18.828a1.17,1.17,0,0,1,1.2-.282,13.418,13.418,0,0,0,4.2.671,1.18,1.18,0,0,1,1.176,1.176V24.5A1.18,1.18,0,0,1,24.5,25.674a20,20,0,0,1-20-20A1.18,1.18,0,0,1,5.676,4.5H9.793A1.18,1.18,0,0,1,10.97,5.676a13.363,13.363,0,0,0,.671,4.2,1.181,1.181,0,0,1-.294,1.2L8.758,13.664Z" transform="translate(-4.5 -4.5)" fill="#fff"/>
</svg>
